<svg width="43" height="43" viewBox="0 0 43 43" fill="none" xmlns="http://www.w3.org/2000/svg">
<rect x="0.911133" y="0.349609" width="42" height="42" rx="8" fill="#165DF5"/>
<path d="M30.4111 16.582L25.4111 30.5469C25.3851 30.625 25.3363 30.6901 25.2646 30.7422C25.193 30.7943 25.1117 30.8203 25.0205 30.8203H24.8838C24.8057 30.8203 24.7308 30.7975 24.6592 30.752C24.5876 30.7064 24.5387 30.651 24.5127 30.5859H24.4932L22.54 26.4062C22.488 26.3021 22.4489 26.1914 22.4229 26.0742C22.3968 25.957 22.3838 25.8333 22.3838 25.7031C22.3838 25.4818 22.4229 25.2734 22.501 25.0781C22.5791 24.8828 22.6833 24.7135 22.8135 24.5703L25.3135 21.8359C25.3525 21.7969 25.3818 21.7546 25.4014 21.709C25.4209 21.6634 25.4307 21.6081 25.4307 21.543C25.4307 21.4909 25.4209 21.4388 25.4014 21.3867C25.3818 21.3346 25.3525 21.2956 25.3135 21.2695L25.001 20.9375C24.9619 20.9115 24.9196 20.8887 24.874 20.8691C24.8285 20.8496 24.7731 20.8398 24.708 20.8398C24.6559 20.8398 24.6071 20.8496 24.5615 20.8691C24.516 20.8887 24.4736 20.9115 24.4346 20.9375L21.7002 23.4375C21.5439 23.5807 21.3714 23.6914 21.1826 23.7695C20.9938 23.8477 20.7887 23.8867 20.5674 23.8867C20.4372 23.8867 20.3102 23.8737 20.1865 23.8477C20.0628 23.8216 19.9489 23.7826 19.8447 23.7305L15.6846 21.7578C15.6064 21.7318 15.5413 21.6829 15.4893 21.6113C15.4372 21.5397 15.4111 21.4648 15.4111 21.3867V21.25C15.4111 21.237 15.4111 21.2305 15.4111 21.2305C15.4111 21.2305 15.4111 21.224 15.4111 21.2109C15.4111 21.1198 15.4372 21.0384 15.4893 20.9668C15.5413 20.8952 15.6064 20.8464 15.6846 20.8203L29.6494 15.8203C29.6624 15.8073 29.682 15.8008 29.708 15.8008C29.734 15.8008 29.7601 15.8008 29.7861 15.8008C29.8382 15.8008 29.8903 15.8105 29.9424 15.8301C29.9945 15.8496 30.04 15.8789 30.0791 15.918L30.2939 16.1328C30.333 16.1719 30.3656 16.2174 30.3916 16.2695C30.4176 16.3216 30.4307 16.3802 30.4307 16.4453C30.4307 16.4714 30.4307 16.4974 30.4307 16.5234C30.4307 16.5495 30.4242 16.569 30.4111 16.582Z" fill="white"/>
</svg>
