<?xml version="1.0" encoding="UTF-8"?>
<svg version="1.1" xmlns="http://www.w3.org/2000/svg" width="512" height="512">
<path d="M0 0 C0.71027814 -0.00367669 1.42055628 -0.00735338 2.152358 -0.01114148 C4.53268591 -0.02215536 6.91297014 -0.02601829 9.2933197 -0.02983093 C11.00017942 -0.03609745 12.70703778 -0.04274442 14.41389465 -0.04974365 C20.02074741 -0.07076867 25.62760038 -0.08114638 31.23448181 -0.09111023 C33.16710868 -0.09515873 35.09973541 -0.09927568 37.03236198 -0.10346031 C46.1151532 -0.12251062 55.19793631 -0.13674052 64.28074366 -0.14507228 C74.75143292 -0.15483657 85.22191032 -0.18113567 95.69252497 -0.22157317 C103.79377386 -0.25178188 111.8949622 -0.26654577 119.99626631 -0.26985329 C124.83069636 -0.27219886 129.66490006 -0.28109454 134.49926949 -0.30631447 C139.05231013 -0.32968271 143.60497679 -0.33379341 148.15806198 -0.32355309 C149.82245443 -0.32305969 151.48686583 -0.32932169 153.15120125 -0.34310913 C165.57263393 -0.44018979 176.02041428 0.83179382 185.87901306 9.10029602 C193.9477739 17.0777124 198.2417743 26.17302924 198.35521787 37.51299417 C198.34920783 38.40921192 198.34319778 39.30542968 198.33700562 40.22880554 C198.34508392 41.69265196 198.34508392 41.69265196 198.35332543 43.18607104 C198.36756038 46.43544205 198.3605122 49.68440312 198.3533783 52.93379211 C198.3590842 55.27192511 198.36604931 57.61005532 198.37417603 59.94818115 C198.39209854 66.28500182 198.39094063 72.62168393 198.38523364 78.95852232 C198.38174859 84.92485419 198.38970907 90.89116905 198.39659429 96.85749562 C198.41030413 109.39683776 198.40489247 121.93611741 198.39340908 134.4754581 C198.38347959 145.92943503 198.39641509 157.38325035 198.42034327 168.83720236 C198.44476737 180.61793646 198.45433395 192.39859541 198.44769055 204.17935431 C198.4442055 210.78541177 198.44672056 217.39136093 198.46394157 223.99740219 C198.47943281 230.21093547 198.47543056 236.42416075 198.45663643 242.63768196 C198.45295657 244.91322458 198.45604133 247.18879014 198.46652222 249.4643116 C198.5339656 265.32229177 197.97434864 277.9806182 186.28916931 289.83076477 C178.96696088 296.51916017 171.66027723 299.26168368 161.82272339 299.29434204 C161.10427815 299.29801873 160.3858329 299.30169542 159.64561659 299.30548352 C157.23764969 299.31649839 154.82972597 299.3203605 152.42173767 299.32417297 C150.69517378 299.33043941 148.96861124 299.33708637 147.24205017 299.34408569 C141.57026608 299.36511153 135.89848176 299.37548845 130.22666931 299.38545227 C128.27175444 299.38950073 126.31683971 299.39361768 124.36192513 299.39780235 C115.17448243 299.41685279 105.98704775 299.4310827 96.7995891 299.43941432 C86.20777985 299.44917886 75.61618001 299.47547856 65.02444452 299.51591522 C56.82977816 299.54612234 48.63517166 299.56088766 40.44045073 299.56419533 C35.55013042 299.56654106 30.66003387 299.57543894 25.76977348 299.60065651 C21.16420443 299.624022 16.5590051 299.62813654 11.95339203 299.61789513 C10.26964904 299.61740167 8.58588733 299.62366561 6.9022007 299.63745117 C-4.96449135 299.72911905 -15.6400869 298.76704423 -25.20301819 290.97138977 C-33.20031798 283.07553565 -37.34554777 273.92169253 -37.45656675 262.72433954 C-37.45055671 261.81965778 -37.44454666 260.91497601 -37.43835449 259.98287964 C-37.4464328 258.50572421 -37.4464328 258.50572421 -37.4546743 256.99872726 C-37.46891082 253.71938442 -37.4618607 250.4404477 -37.45472717 247.16108704 C-37.46043296 244.80162737 -37.46739802 242.44217046 -37.4755249 240.0827179 C-37.49344775 233.68811534 -37.49228957 227.29365008 -37.48658252 220.89902997 C-37.4842685 216.90161104 -37.48648382 212.90421289 -37.49106026 208.90679741 C-37.49180868 208.24204199 -37.4925571 207.57728657 -37.4933282 206.89238704 C-37.49485977 205.54170116 -37.49639811 204.19101527 -37.49794317 202.8403294 C-37.51165286 190.19037857 -37.5062412 177.54048969 -37.49475796 164.89054029 C-37.48482602 153.33242396 -37.49776823 141.77446772 -37.52169215 130.21637607 C-37.54610792 118.33055579 -37.55568502 106.44480999 -37.54903942 94.55896515 C-37.54555285 87.8931387 -37.54807916 81.22741717 -37.56529045 74.56160164 C-37.58077001 68.29308036 -37.57679237 62.02486454 -37.55798531 55.75635529 C-37.55430237 53.45942938 -37.55739923 51.16248078 -37.56787109 48.86557579 C-37.58110234 45.72284893 -37.56951379 42.58113018 -37.55187988 39.43844604 C-37.56628739 38.08476947 -37.56628739 38.08476947 -37.58098596 36.7037459 C-37.45605511 25.83456744 -32.86585244 17.18600971 -25.42567444 9.45967102 C-18.12562777 2.70036855 -9.78976818 0.03287639 0 0 Z M-3.93728065 35.12141418 C-5.44620094 39.22205308 -5.46578987 42.84286079 -5.43162537 47.18074036 C-5.43630534 48.09211683 -5.44098531 49.0034933 -5.4458071 49.94248724 C-5.45777572 52.9971912 -5.44829246 56.05144808 -5.43885803 59.1061554 C-5.4429229 61.29579938 -5.44826429 63.48544131 -5.45478821 65.67507935 C-5.46847767 71.62332744 -5.46315636 77.57141963 -5.45365095 83.51967049 C-5.44606284 89.74068247 -5.45309761 95.96168098 -5.45780945 102.18269348 C-5.46361933 113.29981249 -5.45428839 124.4168701 -5.43903144 135.53397697 C-5.4256283 145.61227084 -5.42795642 155.69046105 -5.44178772 165.76875305 C-5.45784492 177.47442937 -5.46381691 189.18004518 -5.45495093 200.88573122 C-5.45027055 207.08139822 -5.44965962 213.27699382 -5.45956039 219.47265625 C-5.46821748 225.29703579 -5.462231 231.12121929 -5.44487762 236.94557762 C-5.44090608 239.08495444 -5.4420582 241.22434773 -5.44866562 243.36371803 C-5.45684465 246.28056972 -5.44660336 249.19679037 -5.43162537 252.11360168 C-5.43831753 252.96330835 -5.4450097 253.81301501 -5.45190465 254.68847036 C-5.40563997 259.32289095 -5.06568517 262.38516052 -2.05067444 266.14717102 C0.75852039 267.55176843 3.08685584 267.27963123 6.23040771 267.28761292 C6.88195711 267.29058404 7.53350651 267.29355516 8.20479983 267.29661632 C10.39805629 267.30531965 12.59125826 267.30681294 14.78453064 267.30830383 C16.35304888 267.31293088 17.92156599 267.31795538 19.49008179 267.323349 C23.75875755 267.33648654 28.02741757 267.34292067 32.29611039 267.34735966 C34.96191194 267.35028839 37.62770916 267.35439283 40.29350853 267.35886383 C48.63092206 267.37254274 56.96832574 267.38220729 65.30574971 267.38606572 C74.93599781 267.39054666 84.56610398 267.40809454 94.19630891 267.43706632 C101.63585922 267.45867206 109.07536957 267.46876942 116.51495093 267.47010684 C120.96017544 267.47115573 125.40526662 267.47708117 129.85045815 267.49492645 C134.03242409 267.51138788 138.21415619 267.51357209 142.39614296 267.50478745 C143.93081793 267.50401601 145.46550536 267.50837377 147.00014877 267.5182457 C149.0961425 267.53093748 151.1913046 267.52510433 153.28729248 267.5146637 C154.4599809 267.51613026 155.63266932 267.51759682 156.84089375 267.51910782 C160.50029211 267.08124558 162.27092012 266.72063249 164.94932556 264.14717102 C165.45407987 260.97310819 165.6161986 258.3301186 165.57078552 255.15083313 C165.57717434 254.21933661 165.58356317 253.2878401 165.59014559 252.32811642 C165.60545944 249.19315119 165.58489171 246.05943686 165.56455994 242.92451477 C165.5680592 240.68265869 165.57371557 238.44080508 165.58137512 236.19895935 C165.59566056 230.09979263 165.57852452 224.0010747 165.55508995 217.90195084 C165.5350325 211.52918384 165.54085784 205.15643642 165.54319763 198.78364563 C165.543144 188.08019121 165.5234783 177.37693017 165.49131775 166.67353821 C165.45822521 155.65591509 165.44405923 144.63847565 165.45030212 133.62080383 C165.45778395 120.35132886 165.45042676 107.08195137 165.4286499 93.81248474 C165.4204598 88.74075694 165.41776931 83.66906968 165.41934204 78.59733582 C165.42021884 72.62851196 165.40605995 66.65990872 165.38011551 60.69114304 C165.37293288 58.49610844 165.3708801 56.30105041 165.37423325 54.10600662 C165.37792775 51.11826535 165.36327124 48.1311752 165.34373474 45.14350891 C165.34906267 44.26715758 165.35439059 43.39080626 165.35987997 42.48789883 C165.44428773 38.17016571 165.44428773 38.17016571 163.60800695 34.42602015 C160.99311493 32.4099293 158.63812112 32.7628544 155.38267517 32.75276184 C154.71252601 32.74667074 154.04237684 32.74057963 153.35192013 32.73430395 C151.1016653 32.71762688 148.85197341 32.72245619 146.60166931 32.72724915 C144.99034535 32.71991159 143.37902667 32.71132628 141.76771545 32.70158386 C137.3876197 32.67932797 133.00771183 32.67643914 128.62756729 32.67833138 C124.97424992 32.67845087 121.32097267 32.66989553 117.66766644 32.66155386 C109.05156478 32.64230577 100.43556002 32.63944136 91.81944275 32.64619446 C82.92210663 32.65283941 74.02518465 32.629956 65.12793255 32.59288073 C57.49559221 32.56222699 49.86338539 32.55081889 42.23098469 32.55471754 C37.66951342 32.55678924 33.10836445 32.55124119 28.54695129 32.52682495 C24.25894491 32.504631 19.97161412 32.50637358 15.68360519 32.52675247 C14.10777644 32.53017545 12.53190284 32.52501821 10.9561348 32.51076889 C8.80861804 32.4926856 6.66342028 32.50523854 4.51597595 32.52571106 C2.71188011 32.5246423 2.71188011 32.5246423 0.87133789 32.52355194 C-2.15173673 32.8821468 -2.15173673 32.8821468 -3.93728065 35.12141418 Z " fill="#000000" transform="translate(37.05067443847656,212.8528289794922)"/>
<path d="M0 0 C0.71844524 -0.00367669 1.43689049 -0.00735338 2.1771068 -0.01114148 C4.5850737 -0.02215635 6.99299742 -0.02601846 9.40098572 -0.02983093 C11.1275496 -0.03609737 12.85411215 -0.04274433 14.58067322 -0.04974365 C20.25245731 -0.07076948 25.92424163 -0.08114641 31.59605408 -0.09111023 C33.55096895 -0.09515869 35.50588368 -0.09927564 37.46079826 -0.10346031 C46.64824096 -0.12251075 55.83567564 -0.13674066 65.02313429 -0.14507228 C75.61494354 -0.15483682 86.20654337 -0.18113652 96.79827887 -0.22157317 C104.99294523 -0.2517803 113.18755173 -0.26654562 121.38227266 -0.26985329 C126.27259297 -0.27219902 131.16268952 -0.2810969 136.05294991 -0.30631447 C140.65851896 -0.32967996 145.26371828 -0.33379449 149.86933136 -0.32355309 C151.55307435 -0.32305963 153.23683606 -0.32932356 154.92052269 -0.34310913 C166.78721474 -0.43477701 177.46281029 0.52729781 187.02574158 8.32295227 C195.02304136 16.21880639 199.16827116 25.37264951 199.27929014 36.5700025 C199.27328009 37.47468427 199.26727005 38.37936603 199.26107788 39.3114624 C199.26915619 40.78861783 199.26915619 40.78861783 199.27739769 42.29561478 C199.29163421 45.57495762 199.28458409 48.85389434 199.27745056 52.133255 C199.28315635 54.49271467 199.29012141 56.85217158 199.29824829 59.21162415 C199.31617113 65.6062267 199.31501296 72.00069196 199.30930591 78.39531207 C199.30699189 82.392731 199.30920721 86.39012915 199.31378365 90.38754463 C199.31453207 91.05230005 199.31528049 91.71705547 199.31605159 92.401955 C199.31758315 93.75264089 199.3191215 95.10332677 199.32066656 96.45401264 C199.33437625 109.10396347 199.32896458 121.75385235 199.31748135 134.40380175 C199.3075494 145.96191808 199.32049162 157.51987432 199.34441554 169.07796597 C199.36883131 180.96378625 199.37840841 192.84953205 199.37176281 204.73537689 C199.36827624 211.40120334 199.37080255 218.06692487 199.38801384 224.7327404 C199.4034934 231.00126168 199.39951575 237.2694775 199.38070869 243.53798676 C199.37702575 245.83491266 199.38012261 248.13186126 199.39059448 250.42876625 C199.40382573 253.57149311 199.39223718 256.71321186 199.37460327 259.855896 C199.38901078 261.20957257 199.38901078 261.20957257 199.40370935 262.59059614 C199.2787785 273.4597746 194.68857583 282.10833233 187.24839783 289.83467102 C179.96022264 296.58298138 171.63034495 299.26465013 161.85395813 299.28761292 C161.14705798 299.29058404 160.44015783 299.29355516 159.71183646 299.29661632 C157.34298944 299.30528811 154.97419305 299.30681029 152.60533142 299.30830383 C150.90670158 299.31293319 149.20807278 299.31795801 147.50944519 299.323349 C142.89345574 299.33646614 138.27748083 299.34291695 133.66147566 299.34735966 C130.77551675 299.35029228 127.8895618 299.35439751 125.00360489 299.35886383 C115.96833355 299.3725387 106.93307128 299.38220467 97.89779031 299.38606572 C87.47919985 299.39054265 77.06074084 299.40807363 66.64219034 299.43706632 C58.58256939 299.45871324 50.52298533 299.46877166 42.46333563 299.47010684 C37.65301498 299.47115297 32.84281789 299.47701952 28.03252792 299.49492645 C23.5033373 299.51145859 18.97436241 299.51353776 14.44515228 299.50478745 C12.78840938 299.50401974 11.13165463 299.50832439 9.47494125 299.5182457 C-4.02445394 299.59430557 -14.56988684 298.26675368 -25.12660217 289.14717102 C-37.34918097 276.76100131 -36.70767702 262.43756925 -36.6441803 246.13349915 C-36.64960593 243.79507004 -36.65673106 241.45664435 -36.66542053 239.1182251 C-36.68360406 232.78974153 -36.67660672 226.46151979 -36.66390419 220.13303185 C-36.6547813 214.17179834 -36.66175801 208.21059667 -36.66761297 202.24936229 C-36.67899707 189.72334007 -36.66593927 177.19743527 -36.6444115 164.67143232 C-36.62654246 153.94242057 -36.62964718 143.21358199 -36.64808655 132.48457336 C-36.66953176 120.00090231 -36.67789863 107.51733397 -36.66563749 95.03364706 C-36.65941336 88.43432555 -36.65853732 81.83512311 -36.67178345 75.23580933 C-36.68336965 69.0304437 -36.67526517 62.82540389 -36.65220642 56.62007332 C-36.64693419 54.34775902 -36.64840752 52.07541712 -36.65725708 49.80311394 C-36.71325868 33.95825056 -36.14107693 21.3030266 -24.46644592 9.46357727 C-17.14423749 2.77518187 -9.83755384 0.03265836 0 0 Z M-3.12660217 35.14717102 C-3.63135648 38.32123385 -3.79347521 40.96422345 -3.74806213 44.14350891 C-3.75445096 45.07500543 -3.76083978 46.00650194 -3.7674222 46.96622562 C-3.78273605 50.10119085 -3.76216832 53.23490518 -3.74183655 56.36982727 C-3.74533581 58.61168335 -3.75099219 60.85353696 -3.75865173 63.09538269 C-3.77293717 69.19454941 -3.75580113 75.29326734 -3.73236656 81.3923912 C-3.71230911 87.7651582 -3.71813445 94.13790562 -3.72047424 100.51069641 C-3.72042062 111.21415083 -3.70075491 121.91741188 -3.66859436 132.62080383 C-3.63550182 143.63842696 -3.62133584 154.65586639 -3.62757874 165.67353821 C-3.63506056 178.94301318 -3.62770337 192.21239067 -3.60592651 205.4818573 C-3.59773641 210.5535851 -3.59504592 215.62527236 -3.59661865 220.69700623 C-3.59749545 226.66583008 -3.58333656 232.63443332 -3.55739212 238.60319901 C-3.55020949 240.7982336 -3.54815671 242.99329163 -3.55150986 245.18833542 C-3.55520436 248.17607669 -3.54054786 251.16316684 -3.52101135 254.15083313 C-3.52633928 255.02718446 -3.5316672 255.90353579 -3.53715658 256.80644321 C-3.62156434 261.12417633 -3.62156434 261.12417633 -1.78528357 264.8683219 C0.82960846 266.88441274 3.18460227 266.53148764 6.44004822 266.5415802 C7.44527196 266.55071686 7.44527196 266.55071686 8.47080326 266.56003809 C10.72105809 266.57671516 12.97074998 266.57188586 15.22105408 266.5670929 C16.83237803 266.57443045 18.44369672 266.58301576 20.05500793 266.59275818 C24.43510369 266.61501407 28.81501156 266.6179029 33.1951561 266.61601067 C36.84847347 266.61589117 40.50175072 266.62444651 44.15505695 266.63278818 C52.77115861 266.65203628 61.38716337 266.65490068 70.00328064 266.64814758 C78.90061676 266.64150263 87.79753874 266.66438604 96.69479084 266.70146132 C104.32713118 266.73211505 111.959338 266.74352315 119.5917387 266.7396245 C124.15320997 266.7375528 128.71435894 266.74310085 133.27577209 266.76751709 C137.56377848 266.78971104 141.85110926 266.78796846 146.13911819 266.76758957 C147.71494695 266.76416659 149.29082055 266.76932383 150.86658859 266.78357315 C153.01410535 266.80165644 155.15930311 266.7891035 157.30674744 266.76863098 C159.11084328 266.76969975 159.11084328 266.76969975 160.9513855 266.7707901 C163.97446012 266.41219524 163.97446012 266.41219524 165.76000404 264.17292786 C167.26892433 260.07228896 167.28851326 256.45148125 167.25434875 252.11360168 C167.26136871 250.74653698 167.26136871 250.74653698 167.26853049 249.3518548 C167.2804991 246.29715084 167.27101584 243.24289396 167.26158142 240.18818665 C167.26564628 237.99854266 167.27098768 235.80890073 167.2775116 233.6192627 C167.29120106 227.6710146 167.28587975 221.72292241 167.27637434 215.77467155 C167.26878623 209.55365957 167.27582099 203.33266106 167.28053284 197.11164856 C167.28634272 185.99452955 167.27701178 174.87747194 167.26175483 163.76036507 C167.24835169 153.6820712 167.25067981 143.60388099 167.26451111 133.52558899 C167.2805683 121.81991267 167.28654029 110.11429686 167.27767432 98.40861082 C167.27299394 92.21294382 167.27238301 86.01734822 167.28228378 79.82168579 C167.29094087 73.99730625 167.28495439 68.17312275 167.26760101 62.34876442 C167.26362947 60.2093876 167.26478159 58.06999431 167.27138901 55.93062401 C167.27956804 53.01377233 167.26932675 50.09755167 167.25434875 47.18074036 C167.264387 45.90618036 167.264387 45.90618036 167.27462804 44.60587168 C167.22836336 39.97145109 166.88840856 36.90918152 163.87339783 33.14717102 C161.064203 31.74257361 158.73586755 32.01471082 155.59231567 32.00672913 C154.94076628 32.003758 154.28921688 32.00078688 153.61792356 31.99772573 C151.4246671 31.98902239 149.23146513 31.9875291 147.03819275 31.98603821 C145.46967451 31.98141116 143.90115739 31.97638666 142.3326416 31.97099304 C138.06396584 31.9578555 133.79530582 31.95142137 129.526613 31.94698238 C126.86081145 31.94405365 124.19501423 31.93994921 121.52921486 31.93547821 C113.19180133 31.9217993 104.85439765 31.91213475 96.51697367 31.90827632 C86.88672558 31.90379538 77.25661941 31.8862475 67.62641448 31.85727572 C60.18686417 31.83566998 52.74735381 31.82557262 45.30777246 31.8242352 C40.86254795 31.82318631 36.41745677 31.81726087 31.97226524 31.79941559 C27.7902993 31.78295416 23.60856719 31.78076995 19.42658043 31.7895546 C17.89190546 31.79032603 16.35721803 31.78596827 14.82257462 31.77609634 C12.72658089 31.76340456 10.63141879 31.76923771 8.53543091 31.77967834 C7.36274249 31.77821178 6.19005407 31.77674522 4.98182964 31.77523422 C1.32243127 32.21309646 -0.44819673 32.57370955 -3.12660217 35.14717102 Z " fill="#000000" transform="translate(313.12660217285156,-0.1471710205078125)"/>
<path d="M0 0 C1.70760035 -0.00570953 3.41519689 -0.01267604 5.12278748 -0.02079773 C9.74066987 -0.03868084 14.35836173 -0.03756979 18.97626829 -0.03185534 C22.84038226 -0.02875617 26.70446002 -0.03486411 30.56856883 -0.04089409 C39.68946088 -0.05492208 48.81025923 -0.05339268 57.93115234 -0.04199219 C67.32031648 -0.03051523 76.70919483 -0.04458349 86.09832132 -0.07138866 C94.17845836 -0.09358755 102.25850597 -0.10017354 110.33867133 -0.09431225 C115.15623358 -0.09095118 119.97361272 -0.09330095 124.79114914 -0.11056328 C129.3237727 -0.12609704 133.85597492 -0.12200598 138.38858223 -0.10325813 C140.04490265 -0.09958985 141.70125474 -0.10262895 143.35754585 -0.11314392 C157.36234123 -0.19521414 168.48921518 1.92459894 178.77197266 12.06420898 C184.53902604 18.37776618 188.19033018 25.47360743 188.23554993 34.10096741 C188.24628288 35.51156937 188.24628288 35.51156937 188.25723267 36.95066833 C188.25992157 37.97563919 188.26261047 39.00061005 188.26538086 40.05664062 C188.27195206 41.14170898 188.27852325 42.22677734 188.28529358 43.34472656 C188.30501633 46.93872142 188.31668847 50.53267446 188.32666016 54.12670898 C188.33073568 55.35599058 188.33481121 56.58527218 188.33901024 57.85180473 C188.35771915 63.69040101 188.37228376 69.52898091 188.38062221 75.36760145 C188.3894063 81.41689706 188.40865471 87.46594094 188.44506836 93.51513672 C188.48357696 100.01666023 188.50231721 106.51795695 188.5068264 113.01959038 C188.51168438 115.49179769 188.52327571 117.96400167 188.5418644 120.43614388 C188.56633019 123.90626147 188.56527646 127.37552487 188.55834961 130.84570312 C188.5775647 132.36190498 188.5775647 132.36190498 188.59716797 133.90873718 C188.52254665 144.2268257 185.45072759 153.94711284 178.08837891 161.40405273 C166.79986323 170.96179088 156.1171313 171.85032287 141.97729492 171.80810547 C140.24836792 171.81381479 138.51944469 171.82078122 136.79052734 171.8289032 C132.11486339 171.84678724 127.4393876 171.84567524 122.76369977 171.83996081 C118.85227046 171.8368622 114.94087694 171.84296886 111.02945274 171.84899956 C101.79833186 171.86302745 92.56730357 171.86149784 83.33618164 171.85009766 C73.82998331 171.8386168 64.32406712 171.85269554 54.81790596 171.87949413 C46.6392718 171.90168248 38.46072601 171.90828149 30.2820639 171.90241772 C25.40473065 171.89905461 20.52757825 171.90142028 15.65027046 171.91866875 C11.06265964 171.93418596 6.47546544 171.93012959 1.88787079 171.9113636 C0.21016708 171.90769098 -1.46756783 171.91074728 -3.14524269 171.92124939 C-17.0758533 172.00175599 -27.30974727 169.68733864 -37.59912109 159.77905273 C-43.47082259 153.43761512 -47.01250697 145.45395165 -47.05879211 136.7830658 C-47.06594742 135.8594928 -47.07310272 134.9359198 -47.08047485 133.98435974 C-47.08316376 132.97809036 -47.08585266 131.97182098 -47.08862305 130.93505859 C-47.09519424 129.86949738 -47.10176544 128.80393616 -47.10853577 127.70608521 C-47.12825696 124.17702156 -47.13993037 120.64800051 -47.14990234 117.11889648 C-47.15397787 115.91168001 -47.1580534 114.70446354 -47.16225243 113.46066475 C-47.18311065 107.06785376 -47.19741205 100.67506421 -47.20678711 94.28222656 C-47.21783571 87.69401736 -47.25221896 81.10614736 -47.29195881 74.51805782 C-47.31816611 69.44008273 -47.32648275 64.36218785 -47.33006859 59.28415108 C-47.33492584 56.85660073 -47.34651506 54.42905376 -47.36510658 52.00156975 C-47.38957895 48.59371348 -47.38851749 45.18672671 -47.3815918 41.77880859 C-47.39440186 40.78670883 -47.40721191 39.79460907 -47.42041016 38.77244568 C-47.33924639 27.74641565 -43.70679724 18.28848662 -35.91162109 10.40405273 C-24.71874232 0.87898702 -14.04841079 -0.04248035 0 0 Z M-12.79738617 34.67014313 C-14.1608181 36.79183907 -14.29320124 38.02671489 -14.30603027 40.54101562 C-14.31738007 41.38221954 -14.32872986 42.22342346 -14.34042358 43.09011841 C-14.33749298 44.0096933 -14.33456238 44.92926819 -14.33154297 45.87670898 C-14.34424728 47.33317337 -14.34424728 47.33317337 -14.35720825 48.81906128 C-14.38064586 52.03502425 -14.38159887 55.25051076 -14.38037109 58.46655273 C-14.38746798 60.69710483 -14.39516627 62.92765509 -14.40344238 65.15820312 C-14.41690233 69.83558222 -14.41844886 74.51279248 -14.41259766 79.19018555 C-14.40669669 85.19309569 -14.4373032 91.19519842 -14.47771454 97.19795227 C-14.50352352 101.80469145 -14.50647519 106.41123438 -14.50282288 111.01803589 C-14.50452014 113.23169995 -14.51422054 115.44537249 -14.53196716 117.65896606 C-14.55402481 120.75033136 -14.5445222 123.84003839 -14.52685547 126.93139648 C-14.54011871 127.85097137 -14.55338196 128.77054626 -14.56704712 129.71798706 C-14.55583832 130.55919098 -14.54462952 131.4003949 -14.53308105 132.26708984 C-14.53379356 132.9978624 -14.53450607 133.72863495 -14.53524017 134.48155212 C-14.03148016 136.62560821 -14.03148016 136.62560821 -11.78831577 138.13880348 C-8.39054404 139.63323672 -5.97158723 139.78141877 -2.26304626 139.78500366 C-1.60822803 139.78968363 -0.95340979 139.79436361 -0.27874857 139.7991854 C1.9077189 139.81111794 4.09355756 139.80168557 6.2800293 139.79223633 C7.85061508 139.79630278 9.421198 139.80164508 10.99177551 139.8081665 C15.25201415 139.82183606 19.51203469 139.81654328 23.77227712 139.80702925 C28.23071329 139.79943212 32.68913084 139.80647828 37.14756775 139.81118774 C44.63348747 139.81664457 52.11931837 139.809455 59.60522461 139.79516602 C68.26164107 139.77883367 76.91784562 139.78413251 85.57425696 139.80064523 C93.00622436 139.81425506 100.43812794 139.81618241 107.87010378 139.80832922 C112.30908364 139.8036507 116.74796386 139.80303289 121.18693733 139.81293869 C125.35912064 139.82159898 129.5310304 139.81560374 133.70318413 139.79825592 C135.23504558 139.7942863 136.76693002 139.79543326 138.29878235 139.80204391 C140.38842917 139.81023096 142.47719705 139.79997359 144.56678772 139.78500366 C146.32135835 139.78330705 146.32135835 139.78330705 148.11137486 139.78157616 C151.40040046 139.36448428 152.76806329 138.73669273 155.08837891 136.40405273 C156.41800315 132.41518 156.24416526 128.58159346 156.24951172 124.42211914 C156.25447662 123.50312332 156.25944153 122.5841275 156.26455688 121.63728333 C156.27917675 118.59338638 156.28597994 115.54954154 156.29150391 112.50561523 C156.29725513 110.39195758 156.30301287 108.27829995 156.30877686 106.16464233 C156.31928609 101.73109697 156.32512939 97.29756974 156.32861328 92.86401367 C156.33410038 87.1821239 156.35813345 81.50047349 156.38658524 75.81865883 C156.40520475 71.45207009 156.41041683 67.08553912 156.41194916 62.71891403 C156.41497734 60.624136 156.42301141 58.52935902 156.43613434 56.4346199 C156.45318163 53.50448612 156.45131781 50.57493859 156.44482422 47.64477539 C156.45864639 46.34632942 156.45864639 46.34632942 156.4727478 45.02165222 C156.46717865 44.21976974 156.4616095 43.41788727 156.45587158 42.59170532 C156.45733814 41.89964808 156.4588047 41.20759083 156.4603157 40.49456215 C155.92589732 37.4908081 155.04006037 35.758661 153.08837891 33.40405273 C150.07027505 32.65335348 150.07027505 32.65335348 146.52172852 32.78259277 C145.51650477 32.77300954 145.51650477 32.77300954 144.49097347 32.76323271 C142.2402864 32.747944 139.99134901 32.76846645 137.74072266 32.78881836 C136.12939876 32.78531828 134.5180783 32.77966097 132.9067688 32.77200317 C128.52649089 32.75772907 124.14683876 32.774842 119.76662064 32.79828835 C115.18759618 32.81836108 110.60859863 32.81251966 106.02954102 32.81018066 C98.33908741 32.81023427 90.64887918 32.83001435 82.95849609 32.86206055 C74.06124101 32.89895509 65.16430748 32.90773654 56.26698589 32.90076303 C47.71596105 32.89446264 39.16504674 32.90520371 30.61404419 32.92472839 C26.97134835 32.93291343 23.32870891 32.93560991 19.68600464 32.93403625 C15.39809343 32.93315874 11.11048887 32.94733742 6.82265854 32.97326279 C5.24685019 32.98043862 3.67100925 32.98250142 2.09518814 32.97914505 C-0.05186662 32.97544361 -2.19801981 32.99012954 -4.3449707 33.00964355 C-5.54770126 33.01337227 -6.75043182 33.01710098 -7.98960876 33.02094269 C-10.87918296 33.17948016 -10.87918296 33.17948016 -12.79738617 34.67014313 Z " fill="#000000" transform="translate(323.91162109375,340.595947265625)"/>
<path d="M0 0 C1.728927 -0.00570932 3.45785023 -0.01267575 5.18676758 -0.02079773 C9.86243153 -0.03868177 14.53790732 -0.03756978 19.21359515 -0.03185534 C23.12502446 -0.02875673 27.03641798 -0.03486339 30.94784218 -0.04089409 C40.17896306 -0.05492198 49.40999136 -0.05339237 58.64111328 -0.04199219 C68.14731161 -0.03051133 77.6532278 -0.04459007 87.15938896 -0.07138866 C95.33802312 -0.09357701 103.51656891 -0.10017602 111.69523102 -0.09431225 C116.57256427 -0.09094914 121.44971668 -0.09331481 126.32702446 -0.11056328 C130.91463528 -0.12608049 135.50182948 -0.12202412 140.08942413 -0.10325813 C141.76712784 -0.09958551 143.44486275 -0.10264181 145.12253761 -0.11314392 C159.05314822 -0.19365052 169.28704219 2.12076683 179.57641602 12.02905273 C185.44811751 18.37049035 188.98980189 26.35415382 189.03608704 35.02503967 C189.04681999 36.41039917 189.04681999 36.41039917 189.05776978 37.82374573 C189.06045868 38.83001511 189.06314758 39.83628448 189.06591797 40.87304688 C189.07248917 41.93860809 189.07906036 43.00416931 189.08583069 44.10202026 C189.10555188 47.63108391 189.11722529 51.16010496 189.12719727 54.68920898 C189.13127279 55.89642546 189.13534832 57.10364193 189.13954735 58.34744072 C189.16040557 64.74025171 189.17470698 71.13304126 189.18408203 77.52587891 C189.19513063 84.11408811 189.22951388 90.70195811 189.26925373 97.29004765 C189.29546103 102.36802274 189.30377768 107.44591762 189.30736351 112.52395439 C189.31222076 114.95150474 189.32380999 117.37905171 189.3424015 119.80653572 C189.36687387 123.21439199 189.36581241 126.62137876 189.35888672 130.02929688 C189.37810181 131.51744652 189.37810181 131.51744652 189.39770508 133.03565979 C189.31648693 144.06907723 185.67926971 153.50943044 177.88891602 161.40405273 C166.63850638 171.122894 155.20871158 171.85156202 140.95556641 171.80810547 C139.25767062 171.81381652 137.55977867 171.82078361 135.8618927 171.8289032 C131.27505982 171.84676802 126.68841894 171.84567891 122.10156178 171.83996081 C118.26225085 171.83685943 114.4229763 171.84297191 110.58367056 171.84899956 C101.52173235 171.8630211 92.45988848 171.86150312 83.39794922 171.85009766 C74.0706796 171.83861717 64.74369755 171.85269636 55.41646582 171.87949413 C47.38726348 171.90169298 39.35815113 171.90827914 31.3289203 171.90241772 C26.54267163 171.89905714 21.75660726 171.90140329 16.9703846 171.91866875 C12.46811551 171.93420282 7.96627059 171.93011113 3.46401787 171.9113636 C1.8189845 171.90769562 0.17391925 171.91073352 -1.47108459 171.92124939 C-15.44032639 172.00368019 -26.54113489 169.8546986 -36.79467773 159.74389648 C-42.57921003 153.41120402 -46.21339445 146.31232303 -46.258255 137.66244507 C-46.26541031 136.71218445 -46.27256561 135.76192383 -46.27993774 134.78286743 C-46.2839711 133.22902847 -46.2839711 133.22902847 -46.28808594 131.64379883 C-46.29465714 130.54737061 -46.30122833 129.45094238 -46.30799866 128.32128906 C-46.32772054 124.69002208 -46.3393927 121.05879646 -46.34936523 117.42749023 C-46.35344076 116.18592793 -46.35751629 114.94436562 -46.36171532 113.66518021 C-46.38042297 107.76945534 -46.39498854 101.87374357 -46.40332729 95.97799623 C-46.4130844 89.19294794 -46.43936744 82.40822722 -46.47982818 75.62329423 C-46.5137496 69.73079611 -46.52548242 63.83840679 -46.52953148 57.94581985 C-46.53439327 55.44766649 -46.54599554 52.94951651 -46.56456947 50.45142746 C-46.58899929 46.94758029 -46.58798816 43.44458066 -46.58105469 39.94067383 C-46.59386475 38.91692657 -46.6066748 37.89317932 -46.61987305 36.83840942 C-46.54711235 26.70383081 -43.2291913 17.75079305 -36.11108398 10.40405273 C-24.83511624 0.83772916 -14.13157428 -0.04219274 0 0 Z M-13.11108398 35.40405273 C-14.44070823 39.39292546 -14.26687034 43.22651201 -14.2722168 47.38598633 C-14.2771817 48.30498215 -14.28214661 49.22397797 -14.28726196 50.17082214 C-14.30188183 53.21471909 -14.30868501 56.25856393 -14.31420898 59.30249023 C-14.31996021 61.41614789 -14.32571795 63.52980552 -14.33148193 65.64346313 C-14.34199117 70.0770085 -14.34783447 74.51053573 -14.35131836 78.9440918 C-14.35680546 84.62598156 -14.38083853 90.30763198 -14.40929031 95.98944664 C-14.42790983 100.35603538 -14.43312191 104.72256635 -14.43465424 109.08919144 C-14.43768242 111.18396947 -14.44571649 113.27874645 -14.45883942 115.37348557 C-14.47588671 118.30361935 -14.47402289 121.23316688 -14.4675293 124.16333008 C-14.47674408 125.02896072 -14.48595886 125.89459137 -14.49545288 126.78645325 C-14.48988373 127.58833572 -14.48431458 128.3902182 -14.47857666 129.21640015 C-14.48004322 129.90845739 -14.48150978 130.60051464 -14.48302078 131.31354332 C-13.9486024 134.31729737 -13.06276545 136.04944447 -11.11108398 138.40405273 C-8.09298013 139.15475199 -8.09298013 139.15475199 -4.54443359 139.0255127 C-3.87428443 139.03190152 -3.20413527 139.03829034 -2.51367855 139.04487276 C-0.26299148 139.06016147 1.98594591 139.03963902 4.23657227 139.01928711 C5.84789617 139.02278719 7.45921662 139.0284445 9.07052612 139.03610229 C13.45080403 139.0503764 17.83045617 139.03326346 22.21067429 139.00981712 C26.78969874 138.98974439 31.36869629 138.99558581 35.94775391 138.9979248 C43.63820751 138.99787119 51.32841575 138.97809112 59.01879883 138.94604492 C67.91605391 138.90915038 76.81298744 138.90036893 85.71030903 138.90734243 C94.26133387 138.91364282 102.81224818 138.90290176 111.36325073 138.88337708 C115.00594657 138.87519204 118.64858601 138.87249555 122.29129028 138.87406921 C126.57920149 138.87494673 130.86680605 138.86076804 135.15463638 138.83484268 C136.73044473 138.82766685 138.30628567 138.82560405 139.88210678 138.82896042 C142.02916154 138.83266186 144.17531474 138.81797593 146.32226562 138.79846191 C147.52499619 138.7947332 148.72772675 138.79100449 149.96690369 138.78716278 C152.85647788 138.62862531 152.85647788 138.62862531 154.77468109 137.13796234 C156.13811302 135.0162664 156.27049616 133.78139058 156.2833252 131.26708984 C156.30034988 130.00528397 156.30034988 130.00528397 156.31771851 128.71798706 C156.3147879 127.79841217 156.3118573 126.87883728 156.30883789 125.93139648 C156.31730743 124.96042023 156.32577698 123.98944397 156.33450317 122.98904419 C156.35794078 119.77308122 156.35889379 116.55759471 156.35766602 113.34155273 C156.3647629 111.11100064 156.37246119 108.88045038 156.3807373 106.64990234 C156.39419725 101.97252325 156.39574378 97.29531299 156.38989258 92.61791992 C156.38399161 86.61500978 156.41459812 80.61290705 156.45500946 74.6101532 C156.48081844 70.00341402 156.48377011 65.39687109 156.4801178 60.79006958 C156.48181507 58.57640552 156.49151546 56.36273298 156.50926208 54.1491394 C156.53131973 51.05777411 156.52181713 47.96806708 156.50415039 44.87670898 C156.51741364 43.95713409 156.53067688 43.0375592 156.54434204 42.09011841 C156.53313324 41.24891449 156.52192444 40.40771057 156.51037598 39.54101562 C156.51144474 38.4448568 156.51144474 38.4448568 156.5125351 37.32655334 C156.00877508 35.18249726 156.00877508 35.18249726 153.76561069 33.66930199 C150.36783896 32.17486875 147.94888216 32.02668669 144.24034119 32.02310181 C143.58552295 32.01842183 142.93070471 32.01374186 142.25604349 32.00892007 C140.06957602 31.99698753 137.88373736 32.0064199 135.69726562 32.01586914 C134.12667984 32.01180269 132.55609692 32.00646039 130.98551941 31.99993896 C126.72528077 31.98626941 122.46526023 31.99156219 118.20501781 32.00107622 C113.74658163 32.00867335 109.28816408 32.00162718 104.82972717 31.99691772 C97.34380745 31.9914609 89.85797655 31.99865047 82.37207031 32.01293945 C73.71565385 32.0292718 65.05944931 32.02397296 56.40303797 32.00746024 C48.97107056 31.99385041 41.53916698 31.99192306 34.10719115 31.99977624 C29.66821128 32.00445477 25.22933106 32.00507258 20.79035759 31.99516678 C16.61817428 31.98650648 12.44626452 31.99250173 8.27411079 32.00984955 C6.74224934 32.01381917 5.2103649 32.01267221 3.67851257 32.00606155 C1.58886575 31.99787451 -0.49990212 32.00813188 -2.5894928 32.02310181 C-4.34406343 32.02479842 -4.34406343 32.02479842 -6.13407993 32.02652931 C-9.42310554 32.44362119 -10.79076836 33.07141274 -13.11108398 35.40405273 Z " fill="#000000" transform="translate(46.111083984375,-0.404052734375)"/>
</svg>
