<svg width="18" height="22" viewBox="0 0 18 22" fill="none" xmlns="http://www.w3.org/2000/svg">
<g clip-path="url(#clip0_802_1105)">
<g clip-path="url(#clip1_802_1105)">
<g clip-path="url(#clip2_802_1105)">
<path d="M2.12015 6.64692C-2.59834 13.1441 1.66317 18.4635 4.45301 20.1499C7.7202 22.1265 14.1682 22.1253 16.729 16.5181C19.9266 9.5375 16.1809 1.51704 15.2585 1.07086C14.5233 0.711033 10.7943 1.12243 8.10521 3.67958C5.55753 6.28483 4.08224 9.75257 3.97204 13.3948C3.97204 13.3948 3.83291 13.9633 3.2356 13.1381C1.92465 11.4949 2.61311 7.69761 2.69107 7.16867C2.79902 6.42383 2.31925 6.40104 2.12015 6.64692Z" fill="white"/>
</g>
</g>
</g>
<defs>
<clipPath id="clip0_802_1105">
<rect width="18" height="20.39" fill="white" transform="translate(0.0012207 0.958984)"/>
</clipPath>
<clipPath id="clip1_802_1105">
<rect width="18" height="20.39" fill="white" transform="translate(0.0012207 0.958984)"/>
</clipPath>
<clipPath id="clip2_802_1105">
<rect width="17.9912" height="20.39" fill="white" transform="translate(0.00561523 0.958984)"/>
</clipPath>
</defs>
</svg>
