<?xml version="1.0" encoding="UTF-8"?>
<svg version="1.1" xmlns="http://www.w3.org/2000/svg" width="512" height="512">
<path d="M0 0 C1.01790619 0.00215515 2.03581238 0.0043103 3.08456421 0.00653076 C17.69363523 0.05620146 32.02575853 0.30709809 46.375 3.3125 C47.34985352 3.51117676 48.32470703 3.70985352 49.32910156 3.91455078 C97.7109774 14.03517194 141.69928269 35.9516877 177.375 70.3125 C178.3640332 71.26068604 178.3640332 71.26068604 179.37304688 72.22802734 C188.86130305 81.37247479 197.6012044 90.66984009 205.375 101.3125 C206.23306152 102.46355017 207.09113451 103.61459177 207.94921875 104.765625 C213.98736829 112.95680614 219.34595521 121.47054105 224.375 130.3125 C224.73948242 130.94430176 225.10396484 131.57610352 225.47949219 132.22705078 C247.08534998 169.97532572 256.85198095 212.74189997 256.6875 255.9375 C256.68534485 256.95540619 256.6831897 257.97331238 256.68096924 259.02206421 C256.63129854 273.63113523 256.38040191 287.96325853 253.375 302.3125 C253.07698486 303.77478027 253.07698486 303.77478027 252.77294922 305.26660156 C242.90021751 352.46343582 221.85118554 395.46204566 188.8046875 430.6953125 C186.85717645 432.79311379 185.00411965 434.91559773 183.1875 437.125 C180.56185473 440.2293954 177.63473241 442.83253031 174.53515625 445.45703125 C173.09719988 446.69216556 171.68751018 447.96100174 170.30859375 449.26171875 C157.78188349 461.04771919 143.4141373 471.01245375 128.375 479.3125 C127.55080566 479.77366211 126.72661133 480.23482422 125.87744141 480.70996094 C102.05974386 493.94249343 76.80657175 503.07367491 50.125 508.5625 C49.39442383 508.71372314 48.66384766 508.86494629 47.91113281 509.02075195 C32.21684563 512.05112511 16.69509559 512.68571601 0.75 512.625 C-0.77685928 512.62176727 -0.77685928 512.62176727 -2.33456421 512.61846924 C-16.94363523 512.56879854 -31.27575853 512.31790191 -45.625 509.3125 C-47.08728027 509.01448486 -47.08728027 509.01448486 -48.57910156 508.71044922 C-91.84881524 499.65920074 -132.05019334 481.27479329 -165.625 452.3125 C-166.37007813 451.67828125 -167.11515625 451.0440625 -167.8828125 450.390625 C-181.38779833 438.57948485 -194.05918743 425.82889772 -204.625 411.3125 C-205.48149066 410.16255169 -206.33826433 409.01281411 -207.1953125 407.86328125 C-213.23534209 399.67315742 -218.61867614 391.16870382 -223.625 382.3125 C-224.0271875 381.60528809 -224.429375 380.89807617 -224.84375 380.16943359 C-237.5310914 357.63453464 -245.9844835 333.36951763 -251.375 308.125 C-251.57383789 307.20017822 -251.77267578 306.27535645 -251.97753906 305.32250977 C-255.26941369 289.11581484 -256.0003085 273.18212105 -255.9375 256.6875 C-255.93534485 255.66959381 -255.9331897 254.65168762 -255.93096924 253.60293579 C-255.88129854 238.99386477 -255.63040191 224.66174147 -252.625 210.3125 C-252.42632324 209.33764648 -252.22764648 208.36279297 -252.02294922 207.35839844 C-241.90232806 158.9765226 -219.9858123 114.98821731 -185.625 79.3125 C-184.99287598 78.65314453 -184.36075195 77.99378906 -183.70947266 77.31445312 C-174.56502521 67.82619695 -165.26765991 59.0862956 -154.625 51.3125 C-153.47394983 50.45443848 -152.32290823 49.59636549 -151.171875 48.73828125 C-142.98224019 42.70072604 -134.47961724 37.31792698 -125.625 32.3125 C-124.91778809 31.9103125 -124.21057617 31.508125 -123.48193359 31.09375 C-100.34654164 18.0683259 -75.17537591 9.31948539 -49.1875 4 C-48.46860596 3.85264404 -47.74971191 3.70528809 -47.0090332 3.5534668 C-31.36274391 0.57960912 -15.88931954 -0.06050362 0 0 Z " fill="#ED4B67" transform="translate(255.625,-0.3125)"/>
<path d="M0 0 C2.03841336 2.03841336 2.65183808 3.26689202 3.69921875 5.89453125 C4.01753662 6.67876465 4.33585449 7.46299805 4.66381836 8.27099609 C5.0016333 9.10969238 5.33944824 9.94838867 5.6875 10.8125 C12.66200633 27.6848258 21.42403642 42.64781868 34.12890625 55.85546875 C36 58 36 58 36 60 C36.57105469 60.2475 37.14210938 60.495 37.73046875 60.75 C40.35523969 62.19565697 42.15856226 63.91674416 44.3125 66 C66.22852146 85.90917647 95.07790985 96.42809762 124.125 100.125 C125.42695313 100.29257813 126.72890625 100.46015625 128.0703125 100.6328125 C129.52050781 100.81457031 129.52050781 100.81457031 131 101 C128.67770993 110.7576925 124.60607554 119.37970577 116 125 C112.125 125.8125 112.125 125.8125 109 126 C108.84217041 126.60223389 108.68434082 127.20446777 108.52172852 127.82495117 C106.68448951 134.41649921 104.14563792 140.27922681 100.9375 146.3125 C100.20841431 147.68716431 100.20841431 147.68716431 99.46459961 149.08959961 C93.13919992 160.74111114 83.27331984 176.86334008 71 183 C71 183.66 71 184.32 71 185 C71.61746094 185.21914063 72.23492187 185.43828125 72.87109375 185.6640625 C91.07068635 192.47852183 103.46620505 205.76083894 111.74609375 223.1328125 C114.08347899 228.47748779 116 233.13004415 116 239 C118.61172557 239.72490808 121.22544044 240.43976436 123.84375 241.140625 C125.76828228 241.66463131 127.6871103 242.21110015 129.59375 242.796875 C136.52463836 244.79460165 143.33872934 245.4533512 150.5 246 C166.76860703 247.27218043 182.46442792 250.41573955 194 263 C207.94407237 280.03627251 210.77199451 300.05730242 210.85107422 321.38647461 C210.87518135 324.46062613 210.9741531 327.5271058 211.07421875 330.59960938 C211.32404377 345.73087181 211.32404377 345.73087181 207.94482422 350.44213867 C205.44033489 352.98801475 202.94823048 354.99521432 200 357 C198.8331669 357.98936395 197.67298031 358.98669203 196.5234375 359.99609375 C153.14824756 393.63070133 100.56337591 417.92460511 44.76953125 418.203125 C43.3521315 418.21371445 43.3521315 418.21371445 41.90609741 418.22451782 C2.48292292 418.45229455 2.48292292 418.45229455 -14 415 C-15.46228027 414.70198486 -15.46228027 414.70198486 -16.95410156 414.39794922 C-65.34875951 404.27465427 -110.81345121 382.18654879 -146 347 C-146.26742554 345.12081909 -146.26742554 345.12081909 -146.29052734 342.80419922 C-146.30328705 341.93503876 -146.31604675 341.0658783 -146.32919312 340.17037964 C-146.33141876 339.22470123 -146.33364441 338.27902283 -146.3359375 337.3046875 C-146.3425943 336.32444611 -146.3492511 335.34420471 -146.35610962 334.33425903 C-146.36625922 332.24776079 -146.37092593 330.16122994 -146.37060547 328.07470703 C-146.3749163 324.9359453 -146.41103499 321.79866296 -146.44921875 318.66015625 C-146.56867832 297.35119755 -142.814356 277.31425186 -128 261 C-116.2521133 250.23407951 -103.56298456 247.63149037 -88.23046875 246.453125 C-77.32264235 245.58606715 -66.86505246 243.21087966 -56.4765625 239.76953125 C-54 239 -54 239 -52 239 C-51.95875 237.80375 -51.9175 236.6075 -51.875 235.375 C-50.04261877 219.76311196 -39.26544118 204.83549908 -27.51953125 194.90234375 C-14.40451745 185 -14.40451745 185 -7 185 C-7 184.01 -7 183.02 -7 182 C-7.81404297 181.66935547 -7.81404297 181.66935547 -8.64453125 181.33203125 C-18.62618163 175.68735002 -26.05485018 164.43419528 -32 155 C-32.62648438 154.02289063 -33.25296875 153.04578125 -33.8984375 152.0390625 C-45 133.9566048 -45 133.9566048 -45 126 C-46.2375 126.2165625 -46.2375 126.2165625 -47.5 126.4375 C-53.89143449 125.63857069 -57.50653868 120.63238796 -61.6875 116.0625 C-65.63957458 110.09406083 -67.31475389 102.87336027 -69 96 C-69.45052734 94.35644531 -69.45052734 94.35644531 -69.91015625 92.6796875 C-70.46639971 89.09916238 -70.49602471 87.32552861 -69 84 C-64.68047164 79.91045621 -59.28047942 77.16767052 -54.13671875 74.25976562 C-28.82989187 59.33937866 -12.03501931 31.21182873 -2.27734375 4.40234375 C-1 1 -1 1 0 0 Z " fill="#E8BA06" transform="translate(224,94)"/>
<path d="M0 0 C1.04414063 0.3609375 2.08828125 0.721875 3.1640625 1.09375 C27.47510819 9.97553718 45.18541487 26.31417667 56.14453125 49.703125 C62.33604785 63.63009872 63.94576823 77.97190976 65.32421875 93.04296875 C65.75843679 97.77460932 66.31241423 102.46932881 66.96484375 107.17578125 C68.072111 115.25014668 68.85923318 123.34338154 69.63134766 131.45565796 C71.97055478 155.88285182 74.47955232 180.29335262 79.46142578 204.34667969 C80.05280351 207.26013984 80.60453397 210.17960628 81.15234375 213.1015625 C86.42083779 240.90513325 94.71089798 268.03506535 106 294 C105.33210449 293.86432617 104.66420898 293.72865234 103.97607422 293.58886719 C98.27625162 292.48413468 92.71140613 291.76006581 86.91870117 291.41772461 C74.20898731 290.65467528 60.54227796 288.77113898 49 283 C48.01268728 280.19567503 47.11377503 277.40457117 46.25 274.5625 C43.95557844 267.40460533 41.48412579 261.10715044 37 255 C36.33097656 254.08863281 35.66195312 253.17726563 34.97265625 252.23828125 C26.20602271 240.94488514 16.18795774 234.18181702 3 229 C4.11440652 225.65678045 4.97472343 224.93980381 7.625 222.75 C22.58191727 209.94496603 34.35643416 192.25811899 40.5546875 173.45703125 C42 170 42 170 44.015625 168.84375 C45.12164062 168.67359375 45.12164062 168.67359375 46.25 168.5 C52.04134133 166.97003462 54.84278749 164.01395415 58 159 C60.29916992 154.45901195 62.17917195 149.74882627 64 145 C62.72769531 144.92523438 61.45539063 144.85046875 60.14453125 144.7734375 C40.8532866 143.42021805 23.34983178 138.4842584 6 130 C4.906875 129.47921875 3.81375 128.9584375 2.6875 128.421875 C-12.61991895 120.69312916 -27.15278296 109.29228645 -38 96 C-38.7734375 95.06414062 -39.546875 94.12828125 -40.34375 93.1640625 C-50.73443995 80.31359368 -57.76258308 66.00705002 -64.18139648 50.85253906 C-65.05860101 48.8673831 -66.01563212 46.93395245 -67 45 C-67.1952124 45.52207031 -67.3904248 46.04414062 -67.59155273 46.58203125 C-75.77550323 68.26036461 -86.00778942 86.05386809 -102 103 C-102.67289062 103.73734375 -103.34578125 104.4746875 -104.0390625 105.234375 C-112.84510921 114.53514344 -123.60098596 122.20050163 -135 128 C-135.95773885 139.23746919 -133.7511616 151.35161085 -127.0625 160.6875 C-126.07869783 161.82478537 -125.05926599 162.93264801 -124 164 C-123.50371094 164.51046875 -123.00742188 165.0209375 -122.49609375 165.546875 C-119.97541112 167.88985938 -118.53473407 168.98302432 -115.046875 169.09375 C-112 170 -112 170 -110.92773438 171.59790039 C-109.92888237 173.89050102 -109.07684715 176.20238867 -108.25 178.5625 C-102.1154568 194.49878025 -89.89810851 218.05094575 -74 226 C-74 226.99 -74 227.98 -74 229 C-75.09054688 229.38478516 -75.09054688 229.38478516 -76.203125 229.77734375 C-94.31709939 236.67458784 -106.00615511 249.51717075 -114.32421875 266.7421875 C-116.31117386 271.44522324 -116.31117386 271.44522324 -117.15234375 276.44140625 C-117.33519265 279.14846187 -117.54927453 280.68890737 -119 283 C-123.75582697 285.57366615 -128.76714346 286.80950087 -134 288 C-135.258125 288.29519531 -136.51625 288.59039062 -137.8125 288.89453125 C-148.03423579 291.02056851 -158.36129353 291.92815718 -168.75854492 292.75048828 C-171.21100035 293.02348789 -173.58771179 293.48530061 -176 294 C-174.5839841 290.37474547 -173.1670654 286.74984441 -171.75 283.125 C-171.35425781 282.11179687 -170.95851563 281.09859375 -170.55078125 280.0546875 C-170.15761719 279.04921875 -169.76445312 278.04375 -169.359375 277.0078125 C-168.96451904 275.99734863 -168.56966309 274.98688477 -168.1628418 273.94580078 C-167.08907724 271.22565735 -165.98616245 268.51912626 -164.87890625 265.8125 C-163.04708125 261.23248158 -161.53396512 256.61890747 -160.1875 251.875 C-159.81455811 250.56184814 -159.81455811 250.56184814 -159.43408203 249.22216797 C-157.143839 240.91808951 -155.22620993 232.53531344 -153.375 224.125 C-153.09809326 222.87444824 -152.82118652 221.62389648 -152.53588867 220.33544922 C-148.32198222 200.78362166 -145.32069776 181.10928758 -143 161.25 C-142.87337982 160.18526459 -142.74675964 159.12052917 -142.61630249 158.02352905 C-140.7883091 142.63890493 -139.20061343 127.2426634 -137.8125 111.8125 C-131.43420296 41.17641354 -131.43420296 41.17641354 -103 17 C-74.59798939 -5.24113791 -34.31100612 -11.95218231 0 0 Z " fill="#353843" transform="translate(291,50)"/>
<path d="M0 0 C2.03841336 2.03841336 2.65183808 3.26689202 3.69921875 5.89453125 C4.01753662 6.67876465 4.33585449 7.46299805 4.66381836 8.27099609 C5.17054077 9.52904053 5.17054077 9.52904053 5.6875 10.8125 C12.66200633 27.6848258 21.42403642 42.64781868 34.12890625 55.85546875 C36 58 36 58 36 60 C36.57105469 60.2475 37.14210938 60.495 37.73046875 60.75 C40.35523969 62.19565697 42.15856226 63.91674416 44.3125 66 C66.22852146 85.90917647 95.07790985 96.42809762 124.125 100.125 C125.42695313 100.29257813 126.72890625 100.46015625 128.0703125 100.6328125 C129.52050781 100.81457031 129.52050781 100.81457031 131 101 C128.67770993 110.7576925 124.60607554 119.37970577 116 125 C112.125 125.8125 112.125 125.8125 109 126 C108.84217041 126.60223389 108.68434082 127.20446777 108.52172852 127.82495117 C106.68448951 134.41649921 104.14563792 140.27922681 100.9375 146.3125 C100.20841431 147.68716431 100.20841431 147.68716431 99.46459961 149.08959961 C93.13919992 160.74111114 83.27331984 176.86334008 71 183 C71 183.66 71 184.32 71 185 C71.61746094 185.21914063 72.23492187 185.43828125 72.87109375 185.6640625 C90.76751267 192.36500474 103.55187393 205.53819098 111.59570312 222.75537109 C115.82747923 232.53289272 117.81420961 242.54674113 119.06567383 253.06054688 C119.31663519 255.15958675 119.58777302 257.25535851 119.86132812 259.3515625 C121.14285721 269.57142836 121.14285721 269.57142836 120 273 C119.23816406 271.97261719 118.47632813 270.94523437 117.69140625 269.88671875 C101.95370502 246.4476662 101.95370502 246.4476662 79 232 C78.88785156 233.05960937 78.88785156 233.05960937 78.7734375 234.140625 C75.10276595 262.78625791 62.53923865 291.26948229 50 317 C49.48050781 318.06927734 48.96101563 319.13855469 48.42578125 320.24023438 C46.83597126 323.49876743 45.23446966 326.75113562 43.625 330 C42.89337646 331.47774902 42.89337646 331.47774902 42.14697266 332.98535156 C39.36313678 338.52622805 36.37459839 343.79698284 33 349 C28.94591938 347.64863979 28.6622442 345.99036381 26.7421875 342.2265625 C26.43787308 341.63610641 26.13355865 341.04565033 25.82002258 340.43730164 C24.82794517 338.50498293 23.85087189 336.56554735 22.875 334.625 C22.19350655 333.28389938 21.51161973 331.94299859 20.8293457 330.60229492 C19.16340971 327.31945398 17.51203949 324.0295627 15.86761475 320.73590088 C15.10859925 319.21728254 14.34496633 317.70097381 13.58056641 316.18505859 C0.77479563 290.69166093 -10.58322132 262.29498841 -15 234 C-20.7751928 233.77257594 -23.29054496 234.13286376 -27.65234375 237.73828125 C-36.90170584 246.64906437 -44.59160473 256.87288494 -51.94995117 267.36035156 C-52.46662354 268.09608398 -52.9832959 268.83181641 -53.515625 269.58984375 C-53.97227539 270.24847412 -54.42892578 270.90710449 -54.89941406 271.58569336 C-55.4442041 272.28577515 -55.4442041 272.28577515 -56 273 C-56.33 273 -56.66 273 -57 273 C-54.52374302 243.87737314 -51.62288077 217.06833532 -29.0625 196.1875 C-23.11694373 191.24079718 -15.00394648 185 -7 185 C-7 184.01 -7 183.02 -7 182 C-7.81404297 181.66935547 -7.81404297 181.66935547 -8.64453125 181.33203125 C-18.62618163 175.68735002 -26.05485018 164.43419528 -32 155 C-32.62648437 154.02289063 -33.25296875 153.04578125 -33.8984375 152.0390625 C-45 133.9566048 -45 133.9566048 -45 126 C-46.2375 126.2165625 -46.2375 126.2165625 -47.5 126.4375 C-53.89143449 125.63857069 -57.50653868 120.63238796 -61.6875 116.0625 C-65.63957458 110.09406083 -67.31475389 102.87336027 -69 96 C-69.30035156 94.90429688 -69.60070312 93.80859375 -69.91015625 92.6796875 C-70.46639971 89.09916238 -70.49602471 87.32552861 -69 84 C-64.68047164 79.91045621 -59.28047942 77.16767052 -54.13671875 74.25976562 C-28.82989187 59.33937866 -12.03501931 31.21182873 -2.27734375 4.40234375 C-1 1 -1 1 0 0 Z " fill="#F7CEA2" transform="translate(224,94)"/>
<path d="M0 0 C1.64810396 8.09069219 0.18238975 14.75392838 -4.25 21.75 C-6.34902017 25.64818031 -6.12279492 26.80788251 -5 31 C-3.42653657 33.67004079 -3.42653657 33.67004079 -1.375 36.1875 C5.83105066 45.45852565 10.939897 54.46113847 14.5 65.6875 C15.34129623 68.22840328 16.18664534 70.76753235 17.0390625 73.3046875 C17.26498077 73.98000015 17.49089905 74.65531281 17.72366333 75.35108948 C20.58717032 83.84607056 23.72376184 92.24048418 26.87084961 100.63369751 C27.53550963 102.40683123 28.19813804 104.18072796 28.85864258 105.95541382 C29.79416006 108.46820975 30.73588897 110.97858554 31.6796875 113.48828125 C31.95541595 114.22994537 32.23114441 114.9716095 32.51522827 115.73574829 C34.38294335 120.6656433 36.57904325 125.31603233 39 130 C41.23937159 124.27477449 43.46685757 118.54501529 45.6875 112.8125 C46.02402588 111.94474945 46.36055176 111.0769989 46.70727539 110.18295288 C50.50484241 100.37110734 54.21686345 90.541601 57.64453125 80.59375 C57.93075851 79.76477707 58.21698578 78.93580414 58.5118866 78.08171082 C59.86871562 74.13943726 61.20722236 70.19201234 62.5222168 66.2355957 C66.2507806 55.18404955 71.06027853 45.36704177 78.375 36.1875 C82.43978114 30.68038032 82.43978114 30.68038032 83 24 C81.83431567 21.30189918 80.53357213 18.69290404 79.21484375 16.06640625 C77.15605308 10.86978029 77.09684672 5.53787167 77 0 C94.3121254 4.76710699 106.80660912 16.594731 115.6875 31.91015625 C121.73632697 43.38780542 124.54355943 55.27295389 126.06567383 68.06054688 C126.31663519 70.15958675 126.58777302 72.25535851 126.86132812 74.3515625 C128.14285721 84.57142836 128.14285721 84.57142836 127 88 C126.23816406 86.97261719 125.47632813 85.94523437 124.69140625 84.88671875 C108.95370502 61.4476662 108.95370502 61.4476662 86 47 C85.92523438 47.70640625 85.85046875 48.4128125 85.7734375 49.140625 C82.10276595 77.78625791 69.53923865 106.26948229 57 132 C56.48050781 133.06927734 55.96101563 134.13855469 55.42578125 135.24023438 C53.83597126 138.49876743 52.23446966 141.75113562 50.625 145 C49.89337646 146.47774902 49.89337646 146.47774902 49.14697266 147.98535156 C46.36313678 153.52622805 43.37459839 158.79698284 40 164 C35.94591938 162.64863979 35.6622442 160.99036381 33.7421875 157.2265625 C33.43787308 156.63610641 33.13355865 156.04565033 32.82002258 155.43730164 C31.82794517 153.50498293 30.85087189 151.56554735 29.875 149.625 C29.19350655 148.28389938 28.51161973 146.94299859 27.8293457 145.60229492 C26.16340971 142.31945398 24.51203949 139.0295627 22.86761475 135.73590088 C22.10859925 134.21728254 21.34496633 132.70097381 20.58056641 131.18505859 C7.77479563 105.69166093 -3.58322132 77.29498841 -8 49 C-13.7751928 48.77257594 -16.29054496 49.13286376 -20.65234375 52.73828125 C-29.90170584 61.64906437 -37.59160473 71.87288494 -44.94995117 82.36035156 C-45.72495972 83.4639502 -45.72495972 83.4639502 -46.515625 84.58984375 C-46.97227539 85.24847412 -47.42892578 85.90710449 -47.89941406 86.58569336 C-48.26260742 87.05241455 -48.62580078 87.51913574 -49 88 C-49.33 88 -49.66 88 -50 88 C-47.52374302 58.87737314 -44.62288077 32.06833532 -22.0625 11.1875 C-16.11694373 6.24079718 -8.00394648 0 0 0 Z " fill="#E7E6E5" transform="translate(217,279)"/>
<path d="M0 0 C0.94101563 0.54269531 1.88203125 1.08539063 2.8515625 1.64453125 C4.10932463 2.36727516 5.36713997 3.08992648 6.625 3.8125 C7.24246094 4.16892578 7.85992187 4.52535156 8.49609375 4.89257812 C10.32384075 5.94112772 12.16025257 6.97268098 14 8 C14.95648438 8.54011719 15.91296875 9.08023437 16.8984375 9.63671875 C29.4268496 15.14353969 46.14918655 14.94081642 58.87890625 10.35546875 C64.71785442 7.81965521 70.38538469 4.99670622 76 2 C77.18582528 5.42517303 78.21735307 8.74912736 78.875 12.3125 C79.73630332 16.47896726 81.27034712 19.93329045 83.29296875 23.6640625 C84.36032176 27.19045531 83.92646507 29.43236232 83 33 C80.91479809 36.59753113 78.30079971 39.79851021 75.74414062 43.06835938 C68.27732372 53.0272148 64.5582367 64.85637879 60.7015686 76.56591797 C54.27276726 96.02209075 46.66342118 115.00405162 39 134 C35.67936505 129.01904758 33.89176769 123.3183073 31.75 117.75 C31.49210693 117.08304108 31.23421387 116.41608215 30.96850586 115.72891235 C25.65141496 101.96295425 20.65430855 88.08440178 15.72167969 74.17675781 C14.1615759 69.77948004 12.589162 65.38686108 11 61 C10.43829102 59.44901611 10.43829102 59.44901611 9.86523438 57.86669922 C7.9643339 52.85105895 5.84792744 48.9463748 2.5 44.75 C-6.86127488 32.8881106 -6.86127488 32.8881106 -7 27 C-5.8203125 24.140625 -5.8203125 24.140625 -4.125 21.25 C-0.25017863 14.0295574 0.02827718 8.01657995 0 0 Z " fill="#F0B97C" transform="translate(217,277)"/>
<path d="M0 0 C1.74271938 2.297221 3.39911152 4.59866729 5 7 C4.67 5.02 4.34 3.04 4 1 C7.32993034 4.82941989 9.05324525 9.37522222 11 14 C10.65775391 13.07767578 10.65775391 13.07767578 10.30859375 12.13671875 C10.02113281 11.32847656 9.73367187 10.52023438 9.4375 9.6875 C9.14746094 8.88699219 8.85742188 8.08648437 8.55859375 7.26171875 C8 5 8 5 9 2 C10.98 5.63 12.96 9.26 15 13 C14.34 11.35 13.68 9.7 13 8 C13.33 7.01 13.66 6.02 14 5 C15.65 8.3 17.3 11.6 19 15 C18.34 12.36 17.68 9.72 17 7 C19.54131358 9.30283254 21.07110295 11.67313793 22.6875 14.6875 C23.12449219 15.49574219 23.56148438 16.30398437 24.01171875 17.13671875 C24.50091797 18.05904297 24.50091797 18.05904297 25 19 C24.44119141 17.62714844 24.44119141 17.62714844 23.87109375 16.2265625 C23.39800781 15.03804687 22.92492187 13.84953125 22.4375 12.625 C21.96183594 11.44164063 21.48617188 10.25828125 20.99609375 9.0390625 C20 6 20 6 21 4 C23.97 9.61 26.94 15.22 30 21 C29.154375 18.89625 28.30875 16.7925 27.4375 14.625 C26.55990615 12.44171775 25.73288477 10.23601706 25 8 C25.33 7.34 25.66 6.68 26 6 C28.64 10.62 31.28 15.24 34 20 C32.7315625 17.3703125 32.7315625 17.3703125 31.4375 14.6875 C28.875 9.375 28.875 9.375 30 6 C31.32 8.64 32.64 11.28 34 14 C33.505 10.535 33.505 10.535 33 7 C35.21134221 9.82328596 37.12465573 12.77075753 39.00610352 15.82177734 C43.38787525 22.88347624 48.19773313 29.01936326 54 35 C54.59941406 35.67289063 55.19882812 36.34578125 55.81640625 37.0390625 C64.56946748 46.52942263 76.1659383 52.92824936 87.72070312 58.40039062 C91.09160185 59.99821724 94.1199195 61.61573082 97 64 C89.375 63.125 89.375 63.125 86 62 C90.455 63.98 90.455 63.98 95 66 C90.44968209 67.13757948 88.36915594 66.4283779 84 65 C88.29 66.65 92.58 68.3 97 70 C92.29804706 71.17548823 89.61442864 70.1414738 85.25 68.5625 C82.8575 67.716875 80.465 66.87125 78 66 C85.92 69.465 85.92 69.465 94 73 C90 74 90 74 85 73 C88.3 74.32 91.6 75.64 95 77 C95 77.33 95 77.66 95 78 C92.03 77.67 89.06 77.34 86 77 C89.3 78.32 92.6 79.64 96 81 C92 82 92 82 87 81 C91.29 82.65 95.58 84.3 100 86 C93.92389415 87.51902646 89.8437464 85.09612643 84 83 C90.93 85.64 97.86 88.28 105 91 C98.55759037 92.61060241 93.28187864 89.91946292 87 88 C92.28 89.98 97.56 91.96 103 94 C98.90000703 95.02499824 98.13224341 94.99925824 94.39453125 93.6640625 C93.05575928 93.18791504 93.05575928 93.18791504 91.68994141 92.70214844 C90.74038574 92.34668945 89.79083008 91.99123047 88.8125 91.625 C87.82942871 91.25922852 86.84635742 90.89345703 85.83349609 90.51660156 C65.08416387 82.59125221 47.78143405 70.54969493 32 55 C31.23558594 54.24847656 30.47117187 53.49695313 29.68359375 52.72265625 C18.35599948 40.86819713 0 17.27989729 0 0 Z " fill="#434550" transform="translate(241,84)"/>
<path d="M0 0 C1.64810396 8.09069219 0.18238975 14.75392838 -4.25 21.75 C-6.35052233 25.65097005 -6.12611944 26.80455037 -5 31 C-3.39373415 33.73805037 -3.39373415 33.73805037 -1.3125 36.3125 C2.32330271 41.09472699 5.72023622 45.9685442 9 51 C8.505 51.99 8.505 51.99 8 53 C7.39414063 52.6390625 6.78828125 52.278125 6.1640625 51.90625 C-0.75895608 48.07196279 -6.23459715 46.6060438 -14.01953125 48.48828125 C-27.75427876 53.94301804 -38.6459673 73.34789501 -46.8203125 85.01171875 C-47.53960937 85.99785156 -48.25890625 86.98398437 -49 88 C-49.33 88 -49.66 88 -50 88 C-47.52374302 58.87737314 -44.62288077 32.06833532 -22.0625 11.1875 C-16.11694373 6.24079718 -8.00394648 0 0 0 Z " fill="#FAFAF8" transform="translate(217,279)"/>
<path d="M0 0 C17.3121254 4.76710699 29.80660912 16.594731 38.6875 31.91015625 C44.73632697 43.38780542 47.54355943 55.27295389 49.06567383 68.06054688 C49.31663519 70.15958675 49.58777302 72.25535851 49.86132812 74.3515625 C51.14285721 84.57142836 51.14285721 84.57142836 50 88 C49.23816406 86.97261719 48.47632813 85.94523437 47.69140625 84.88671875 C33.41665727 62.81089421 33.41665727 62.81089421 13.125 48.26953125 C4.56421434 47.1836963 -1.91917218 49.26196459 -9 54 C-7.70706895 49.46807673 -5.97411503 46.24147936 -3.125 42.5 C-2.41472656 41.54609375 -1.70445312 40.5921875 -0.97265625 39.609375 C0.14018993 38.13733293 1.25546614 36.66709795 2.37890625 35.203125 C5.08872558 31.48337301 6.07560157 28.61169594 6 24 C4.85560117 21.28912369 3.53502449 18.6957967 2.21484375 16.06640625 C0.15605308 10.86978029 0.09684672 5.53787167 0 0 Z " fill="#FAFAF8" transform="translate(294,279)"/>
<path d="M0 0 C1.5 1.375 1.5 1.375 3 3 C3 3.66 3 4.32 3 5 C2.34 5.66 1.68 6.32 1 7 C1.33 7 1.66 7 2 7 C0.33450709 24.38238577 -9.38621072 40.19214376 -22 52 C-24.33665053 53.91882979 -26.73815884 55.72784857 -29.1875 57.5 C-29.76967285 57.92168457 -30.3518457 58.34336914 -30.95166016 58.77783203 C-34.50086098 61.24056342 -37.84321506 62.83938023 -42 64 C-40.66666667 62.66666667 -39.33333333 61.33333333 -38 60 C-39.98 60.66 -41.96 61.32 -44 62 C-43.01 61.01 -42.02 60.02 -41 59 C-43.475 59.495 -43.475 59.495 -46 60 C-44.66666667 58.66666667 -43.33333333 57.33333333 -42 56 C-42.66 55.67 -43.32 55.34 -44 55 C-42.76636719 54.21689453 -42.76636719 54.21689453 -41.5078125 53.41796875 C-22.03204454 40.72428161 -13.30399126 23.40982438 -6 2 C-5.67 2 -5.34 2 -5 2 C-5 4.31 -5 6.62 -5 9 C-4.34 6.69 -3.68 4.38 -3 2 C-2.67 2 -2.34 2 -2 2 C-2 3.98 -2 5.96 -2 8 C-1.34 5.36 -0.68 2.72 0 0 Z " fill="#424450" transform="translate(210,90)"/>
<path d="M0 0 C0.03867188 1.74796875 0.03867188 1.74796875 0.078125 3.53125 C0.51058899 17.26233601 2.4860891 30.50629064 5 44 C-3.379785 37.31131188 -7.60674429 29.70862823 -9 19 C-9.42613498 14.33729047 -9.74728969 9.67514071 -10 5 C-8.71186658 4.16121545 -7.41936744 3.32913217 -6.125 2.5 C-5.40570313 2.0359375 -4.68640625 1.571875 -3.9453125 1.09375 C-2 0 -2 0 0 0 Z " fill="#F0B97C" transform="translate(171,169)"/>
<path d="M0 0 C3.96 0.33 7.92 0.66 12 1 C11.01 1.33 10.02 1.66 9 2 C8.938125 2.66 8.87625 3.32 8.8125 4 C6.8299323 11.32024998 2.81243099 15.15630751 -3 20 C-2.01 13.4 -1.02 6.8 0 0 Z " fill="#EEB87D" transform="translate(339,193)"/>
<path d="M0 0 C0.33 0 0.66 0 1 0 C0.96241221 8.49484137 -1.88187516 14.6704934 -6 22 C-6.33 22 -6.66 22 -7 22 C-7.37857117 15.81667094 -6.96433946 11.48951752 -4 6 C-2.375 4.25 -2.375 4.25 -1 3 C-0.67 2.01 -0.34 1.02 0 0 Z " fill="#E7E4E1" transform="translate(217,282)"/>
<path d="M0 0 C3.65844986 3.29260487 5.83551416 6.05570351 6.1171875 11.09765625 C6.12412868 13.06547967 6.066668 15.03329398 6 17 C1.72256799 11.90781903 -0.48889219 6.68152662 0 0 Z " fill="#E7E4E2" transform="translate(295,286)"/>
</svg>
