<svg width="25" height="25" viewBox="0 0 25 25" fill="none" xmlns="http://www.w3.org/2000/svg">
<path d="M9.50122 8.76855L15.5012 12.2842L9.50122 15.7998V8.81543V8.76855ZM8.4231 6.00293C8.3606 6.00293 8.30591 6.01074 8.25903 6.02637C8.21216 6.04199 8.16528 6.06543 8.11841 6.09668V6.07324L7.8606 6.21387C7.75122 6.29199 7.66528 6.38574 7.60278 6.49512C7.54028 6.60449 7.50903 6.72949 7.50903 6.87012V17.6982C7.50903 17.8389 7.54028 17.9639 7.60278 18.0732C7.66528 18.1826 7.75122 18.2686 7.8606 18.3311V18.3545L8.11841 18.4951C8.16528 18.5107 8.21606 18.5264 8.27075 18.542C8.32544 18.5576 8.37622 18.5654 8.4231 18.5654C8.43872 18.5654 8.44653 18.5654 8.44653 18.5654C8.58716 18.5498 8.71997 18.5186 8.84497 18.4717C8.96997 18.4248 9.08716 18.3623 9.19653 18.2842H9.1731L18.1731 13.0576C18.2825 12.9951 18.3723 12.9053 18.4426 12.7881C18.5129 12.6709 18.5481 12.542 18.5481 12.4014V12.1201C18.5481 11.9795 18.5168 11.8545 18.4543 11.7451C18.3918 11.6357 18.2981 11.5498 18.1731 11.4873V11.4639L9.33716 6.35449C9.21216 6.26074 9.07153 6.18262 8.91528 6.12012C8.75903 6.05762 8.59497 6.01855 8.4231 6.00293Z" fill="white"/>
</svg>
