<svg width="47" height="47" viewBox="0 0 47 47" fill="none" xmlns="http://www.w3.org/2000/svg">
<g opacity="0.999963" filter="url(#filter0_i_802_1110)">
<g clip-path="url(#clip0_802_1110)">
<rect x="0.500977" y="0.65918" width="46" height="46" rx="23" fill="white" fill-opacity="0.01"/>
<path d="M23.5009 1.56104C29.3616 1.56104 34.9824 3.88921 39.1265 8.0334C43.2707 12.1776 45.5989 17.7983 45.5989 23.6591C45.5989 29.5198 43.2707 35.1406 39.1265 39.2847C34.9824 43.4289 29.3616 45.7571 23.5009 45.7571C17.6401 45.7571 12.0194 43.4289 7.8752 39.2847C3.73101 35.1406 1.40283 29.5198 1.40283 23.6591C1.40283 17.7983 3.73101 12.1776 7.8752 8.0334C12.0194 3.88921 17.6401 1.56104 23.5009 1.56104Z" stroke="#165DF5" stroke-width="1.80392" stroke-dasharray="138.87 138.87"/>
<path d="M37.2021 21.5703C37.292 21.6602 37.3594 21.7575 37.4043 21.8623C37.4492 21.9671 37.4717 22.0944 37.4717 22.2441C37.4717 22.3639 37.4492 22.4837 37.4043 22.6035C37.3594 22.7233 37.292 22.8281 37.2021 22.918L36.7979 23.3223C36.708 23.4121 36.6032 23.4795 36.4834 23.5244C36.3636 23.5693 36.2438 23.5918 36.124 23.5918H29.251V37.9668C29.251 38.2363 29.1611 38.4609 28.9814 38.6406C28.8018 38.8203 28.5771 38.9102 28.3076 38.9102H18.6943C18.4248 38.9102 18.2002 38.8203 18.0205 38.6406C17.8408 38.4609 17.751 38.2363 17.751 37.9668V23.5918H10.8779C10.7581 23.5918 10.6383 23.5693 10.5186 23.5244C10.3988 23.4795 10.2939 23.4121 10.2041 23.3223L9.7998 22.918C9.70996 22.8281 9.64258 22.7233 9.59766 22.6035C9.55273 22.4837 9.53027 22.3639 9.53027 22.2441C9.53027 22.0944 9.55273 21.9671 9.59766 21.8623C9.64258 21.7575 9.70996 21.6602 9.7998 21.5703L22.8271 8.54297C22.917 8.45312 23.0218 8.38574 23.1416 8.34082C23.2614 8.2959 23.3812 8.27344 23.501 8.27344C23.6208 8.27344 23.7406 8.2959 23.8604 8.34082C23.9801 8.38574 24.085 8.45312 24.1748 8.54297L37.2021 21.5703Z" fill="#165DF5" fill-opacity="0.2"/>
</g>
</g>
<defs>
<filter id="filter0_i_802_1110" x="0.500977" y="0.65918" width="46" height="46" filterUnits="userSpaceOnUse" color-interpolation-filters="sRGB">
<feFlood flood-opacity="0" result="BackgroundImageFix"/>
<feBlend mode="normal" in="SourceGraphic" in2="BackgroundImageFix" result="shape"/>
<feColorMatrix in="SourceAlpha" type="matrix" values="0 0 0 0 0 0 0 0 0 0 0 0 0 0 0 0 0 0 127 0" result="hardAlpha"/>
<feMorphology radius="2" operator="erode" in="SourceAlpha" result="effect1_innerShadow_802_1110"/>
<feOffset/>
<feComposite in2="hardAlpha" operator="arithmetic" k2="-1" k3="1"/>
<feColorMatrix type="matrix" values="0 0 0 0 0.0862745 0 0 0 0 0.364706 0 0 0 0 0.960784 0 0 0 0.2 0"/>
<feBlend mode="normal" in2="shape" result="effect1_innerShadow_802_1110"/>
</filter>
<clipPath id="clip0_802_1110">
<rect x="0.500977" y="0.65918" width="46" height="46" rx="23" fill="white"/>
</clipPath>
</defs>
</svg>
